<mxfile host="app.diagrams.net" agent="Mozilla/5.0 (Macintosh; Intel Mac OS X 10_15_7) AppleWebKit/537.36 (KHTML, like Gecko) Chrome/139.0.0.0 Safari/537.36" version="27.1.6">
  <diagram name="Page-1" id="Q0xumdaiUaV_4yr3knS1">
    <mxGraphModel dx="2253" dy="1959" grid="1" gridSize="10" guides="1" tooltips="1" connect="1" arrows="1" fold="1" page="1" pageScale="1" pageWidth="827" pageHeight="1169" math="0" shadow="0">
      <root>
        <mxCell id="0" />
        <mxCell id="1" parent="0" />
        <mxCell id="rFtSwH5fFhds6dBa4mi8-1" value="" style="rounded=0;whiteSpace=wrap;html=1;fillColor=none;" vertex="1" parent="1">
          <mxGeometry x="104.45000000000005" y="30" width="535.55" height="240" as="geometry" />
        </mxCell>
        <mxCell id="rFtSwH5fFhds6dBa4mi8-2" value="" style="rounded=1;whiteSpace=wrap;html=1;fillColor=#FFFF33;opacity=10;" vertex="1" parent="1">
          <mxGeometry x="-30" y="-30" width="800" height="670" as="geometry" />
        </mxCell>
        <mxCell id="rFtSwH5fFhds6dBa4mi8-3" value="" style="rounded=0;whiteSpace=wrap;html=1;fillColor=none;" vertex="1" parent="1">
          <mxGeometry x="159.45" y="385" width="430" height="220" as="geometry" />
        </mxCell>
        <mxCell id="rFtSwH5fFhds6dBa4mi8-4" value="" style="points=[];aspect=fixed;html=1;align=center;shadow=0;dashed=0;fillColor=#FF6A00;strokeColor=none;shape=mxgraph.alibaba_cloud.polardb;" vertex="1" parent="1">
          <mxGeometry x="239.45" y="100" width="55.5" height="57.3" as="geometry" />
        </mxCell>
        <mxCell id="rFtSwH5fFhds6dBa4mi8-5" value="" style="outlineConnect=0;dashed=0;verticalLabelPosition=bottom;verticalAlign=top;align=center;html=1;shape=mxgraph.aws3.rds;fillColor=#2E73B8;gradientColor=none;" vertex="1" parent="1">
          <mxGeometry x="453.9" y="96" width="60" height="67.3" as="geometry" />
        </mxCell>
        <mxCell id="rFtSwH5fFhds6dBa4mi8-6" value="" style="points=[];aspect=fixed;html=1;align=center;shadow=0;dashed=0;fillColor=#FF6A00;strokeColor=none;shape=mxgraph.alibaba_cloud.adb_analyticdb_for_mysql;" vertex="1" parent="1">
          <mxGeometry x="225.55" y="420" width="48.9" height="54.9" as="geometry" />
        </mxCell>
        <mxCell id="rFtSwH5fFhds6dBa4mi8-7" value="" style="points=[];aspect=fixed;html=1;align=center;shadow=0;dashed=0;fillColor=#FF6A00;strokeColor=none;shape=mxgraph.alibaba_cloud.adb_analyticdb_for_mysql;" vertex="1" parent="1">
          <mxGeometry x="350" y="420" width="48.9" height="54.9" as="geometry" />
        </mxCell>
        <mxCell id="rFtSwH5fFhds6dBa4mi8-8" value="" style="points=[];aspect=fixed;html=1;align=center;shadow=0;dashed=0;fillColor=#FF6A00;strokeColor=none;shape=mxgraph.alibaba_cloud.adb_analyticdb_for_mysql;" vertex="1" parent="1">
          <mxGeometry x="475.55" y="420" width="48.9" height="54.9" as="geometry" />
        </mxCell>
        <mxCell id="rFtSwH5fFhds6dBa4mi8-9" value="" style="edgeStyle=orthogonalEdgeStyle;rounded=0;orthogonalLoop=1;jettySize=auto;html=1;entryX=0.947;entryY=0.489;entryDx=0;entryDy=0;entryPerimeter=0;startArrow=classic;startFill=1;endArrow=none;endFill=0;" edge="1" parent="1" source="rFtSwH5fFhds6dBa4mi8-11" target="rFtSwH5fFhds6dBa4mi8-4">
          <mxGeometry relative="1" as="geometry">
            <Array as="points">
              <mxPoint x="350" y="128" />
            </Array>
          </mxGeometry>
        </mxCell>
        <mxCell id="rFtSwH5fFhds6dBa4mi8-10" value="" style="edgeStyle=orthogonalEdgeStyle;rounded=0;orthogonalLoop=1;jettySize=auto;html=1;entryX=0;entryY=0.5;entryDx=0;entryDy=0;entryPerimeter=0;startArrow=classic;startFill=1;endArrow=none;endFill=0;" edge="1" parent="1" source="rFtSwH5fFhds6dBa4mi8-11" target="rFtSwH5fFhds6dBa4mi8-5">
          <mxGeometry relative="1" as="geometry">
            <mxPoint x="425" y="133.64999999999998" as="targetPoint" />
            <Array as="points">
              <mxPoint x="370" y="130" />
            </Array>
          </mxGeometry>
        </mxCell>
        <mxCell id="rFtSwH5fFhds6dBa4mi8-11" value="" style="points=[];aspect=fixed;html=1;align=center;shadow=0;dashed=0;fillColor=#FF6A00;strokeColor=none;shape=mxgraph.alibaba_cloud.dts_data_transmission_service;" vertex="1" parent="1">
          <mxGeometry x="334.45" y="290" width="48" height="47.400000000000006" as="geometry" />
        </mxCell>
        <mxCell id="rFtSwH5fFhds6dBa4mi8-12" value="PolarDB" style="text;strokeColor=none;align=center;fillColor=none;html=1;verticalAlign=middle;whiteSpace=wrap;rounded=0;" vertex="1" parent="1">
          <mxGeometry x="234.95" y="167.3" width="60" height="30" as="geometry" />
        </mxCell>
        <mxCell id="rFtSwH5fFhds6dBa4mi8-13" value="RDS MySQL" style="text;strokeColor=none;align=center;fillColor=none;html=1;verticalAlign=middle;whiteSpace=wrap;rounded=0;" vertex="1" parent="1">
          <mxGeometry x="453.9" y="170" width="60" height="30" as="geometry" />
        </mxCell>
        <mxCell id="rFtSwH5fFhds6dBa4mi8-14" value="" style="edgeStyle=orthogonalEdgeStyle;rounded=0;orthogonalLoop=1;jettySize=auto;html=1;entryX=0.541;entryY=-0.018;entryDx=0;entryDy=0;entryPerimeter=0;" edge="1" parent="1" source="rFtSwH5fFhds6dBa4mi8-17" target="rFtSwH5fFhds6dBa4mi8-8">
          <mxGeometry relative="1" as="geometry">
            <mxPoint x="380" y="424" as="targetPoint" />
          </mxGeometry>
        </mxCell>
        <mxCell id="rFtSwH5fFhds6dBa4mi8-15" value="" style="edgeStyle=orthogonalEdgeStyle;rounded=0;orthogonalLoop=1;jettySize=auto;html=1;entryX=0.541;entryY=0.036;entryDx=0;entryDy=0;entryPerimeter=0;" edge="1" parent="1" source="rFtSwH5fFhds6dBa4mi8-17" target="rFtSwH5fFhds6dBa4mi8-6">
          <mxGeometry relative="1" as="geometry" />
        </mxCell>
        <mxCell id="rFtSwH5fFhds6dBa4mi8-16" value="" style="edgeStyle=orthogonalEdgeStyle;rounded=0;orthogonalLoop=1;jettySize=auto;html=1;entryX=0.47;entryY=0.036;entryDx=0;entryDy=0;entryPerimeter=0;" edge="1" parent="1" source="rFtSwH5fFhds6dBa4mi8-17" target="rFtSwH5fFhds6dBa4mi8-7">
          <mxGeometry relative="1" as="geometry" />
        </mxCell>
        <mxCell id="rFtSwH5fFhds6dBa4mi8-17" value="DTS Service" style="text;strokeColor=none;align=center;fillColor=none;html=1;verticalAlign=middle;whiteSpace=wrap;rounded=0;" vertex="1" parent="1">
          <mxGeometry x="334.45" y="337.4" width="60" height="30" as="geometry" />
        </mxCell>
        <mxCell id="rFtSwH5fFhds6dBa4mi8-18" value="AnalyticDB for MySQL" style="text;strokeColor=none;align=center;fillColor=none;html=1;verticalAlign=middle;whiteSpace=wrap;rounded=0;" vertex="1" parent="1">
          <mxGeometry x="220" y="480" width="60" height="30" as="geometry" />
        </mxCell>
        <mxCell id="rFtSwH5fFhds6dBa4mi8-19" value="AnalyticDB for MySQL" style="text;strokeColor=none;align=center;fillColor=none;html=1;verticalAlign=middle;whiteSpace=wrap;rounded=0;" vertex="1" parent="1">
          <mxGeometry x="475.55" y="480" width="60" height="30" as="geometry" />
        </mxCell>
        <mxCell id="rFtSwH5fFhds6dBa4mi8-20" value="AnalyticDB for MySQL" style="text;strokeColor=none;align=center;fillColor=none;html=1;verticalAlign=middle;whiteSpace=wrap;rounded=0;" vertex="1" parent="1">
          <mxGeometry x="350" y="480" width="60" height="30" as="geometry" />
        </mxCell>
        <mxCell id="rFtSwH5fFhds6dBa4mi8-21" value="Product Gen1" style="text;strokeColor=#6c8ebf;align=center;fillColor=#dae8fc;html=1;verticalAlign=middle;whiteSpace=wrap;rounded=0;" vertex="1" parent="1">
          <mxGeometry x="220" y="530" width="60" height="30" as="geometry" />
        </mxCell>
        <mxCell id="rFtSwH5fFhds6dBa4mi8-22" value="Product Gen2" style="text;strokeColor=#6c8ebf;align=center;fillColor=#dae8fc;html=1;verticalAlign=middle;whiteSpace=wrap;rounded=0;" vertex="1" parent="1">
          <mxGeometry x="350" y="530" width="60" height="30" as="geometry" />
        </mxCell>
        <mxCell id="rFtSwH5fFhds6dBa4mi8-23" value="For Dealers" style="text;strokeColor=#6c8ebf;align=center;fillColor=#dae8fc;html=1;verticalAlign=middle;whiteSpace=wrap;rounded=0;" vertex="1" parent="1">
          <mxGeometry x="475.55" y="530" width="60" height="30" as="geometry" />
        </mxCell>
        <mxCell id="rFtSwH5fFhds6dBa4mi8-24" value="Downstream Systems" style="text;strokeColor=#82b366;align=center;fillColor=#d5e8d4;html=1;verticalAlign=middle;whiteSpace=wrap;rounded=0;" vertex="1" parent="1">
          <mxGeometry x="159.45" y="385" width="84.5" height="30" as="geometry" />
        </mxCell>
        <mxCell id="rFtSwH5fFhds6dBa4mi8-25" value="Consumer Data--Core Data set" style="text;strokeColor=#6c8ebf;align=center;fillColor=#dae8fc;html=1;verticalAlign=middle;whiteSpace=wrap;rounded=0;" vertex="1" parent="1">
          <mxGeometry x="109.45" y="113.65" width="110" height="30" as="geometry" />
        </mxCell>
        <mxCell id="rFtSwH5fFhds6dBa4mi8-26" value="For MicroServices" style="text;strokeColor=#6c8ebf;align=center;fillColor=#dae8fc;html=1;verticalAlign=middle;whiteSpace=wrap;rounded=0;" vertex="1" parent="1">
          <mxGeometry x="534.45" y="118.65" width="85" height="30" as="geometry" />
        </mxCell>
        <mxCell id="rFtSwH5fFhds6dBa4mi8-27" value="4x4C/32G&lt;div&gt;MySQL 8.0.28&lt;/div&gt;" style="text;strokeColor=#b85450;align=center;fillColor=#f8cecc;html=1;verticalAlign=middle;whiteSpace=wrap;rounded=0;" vertex="1" parent="1">
          <mxGeometry x="225" y="197.3" width="84.5" height="30" as="geometry" />
        </mxCell>
        <mxCell id="rFtSwH5fFhds6dBa4mi8-28" value="Multi-AZ 8C/16G&lt;br&gt;&lt;div&gt;&lt;span style=&quot;background-color: transparent; color: light-dark(rgb(0, 0, 0), rgb(255, 255, 255));&quot;&gt;ITB storage&lt;/span&gt;&lt;/div&gt;&lt;div&gt;Max IOPS 20000/&lt;/div&gt;" style="text;strokeColor=#b85450;align=center;fillColor=#f8cecc;html=1;verticalAlign=middle;whiteSpace=wrap;rounded=0;" vertex="1" parent="1">
          <mxGeometry x="429.45" y="200" width="117.8" height="60" as="geometry" />
        </mxCell>
        <mxCell id="rFtSwH5fFhds6dBa4mi8-29" value="Upstream Systems" style="text;strokeColor=#82b366;align=center;fillColor=#d5e8d4;html=1;verticalAlign=middle;whiteSpace=wrap;rounded=0;" vertex="1" parent="1">
          <mxGeometry x="104.44999999999999" y="30" width="84.5" height="30" as="geometry" />
        </mxCell>
        <mxCell id="rFtSwH5fFhds6dBa4mi8-30" value="" style="points=[];aspect=fixed;html=1;align=center;shadow=0;dashed=0;fillColor=#FF6A00;strokeColor=none;shape=mxgraph.alibaba_cloud.alibaba_cloud_logo_english;" vertex="1" parent="1">
          <mxGeometry x="299.1" y="-19" width="154.8" height="19.5" as="geometry" />
        </mxCell>
        <mxCell id="rFtSwH5fFhds6dBa4mi8-31" value="AWS Ireland region" style="sketch=0;outlineConnect=0;gradientColor=none;html=1;whiteSpace=wrap;fontSize=12;fontStyle=0;shape=mxgraph.aws4.group;grIcon=mxgraph.aws4.group_aws_cloud;strokeColor=#AAB7B8;fillColor=none;verticalAlign=top;align=left;spacingLeft=30;fontColor=#AAB7B8;dashed=0;" vertex="1" parent="1">
          <mxGeometry x="969" y="-52" width="414" height="259" as="geometry" />
        </mxCell>
        <mxCell id="rFtSwH5fFhds6dBa4mi8-32" value="" style="outlineConnect=0;dashed=0;verticalLabelPosition=bottom;verticalAlign=top;align=center;html=1;shape=mxgraph.aws3.rds;fillColor=#2E73B8;gradientColor=none;" vertex="1" parent="1">
          <mxGeometry x="1143" y="-8" width="54" height="54" as="geometry" />
        </mxCell>
        <mxCell id="rFtSwH5fFhds6dBa4mi8-33" value="RDS MySQL" style="text;strokeColor=none;align=center;fillColor=none;html=1;verticalAlign=middle;whiteSpace=wrap;rounded=0;" vertex="1" parent="1">
          <mxGeometry x="1142" y="53" width="60" height="30" as="geometry" />
        </mxCell>
        <mxCell id="rFtSwH5fFhds6dBa4mi8-34" value="Multi-AZ M6g.4xlarge&lt;br&gt;&lt;div&gt;GP3 3900GB&lt;/div&gt;&lt;div&gt;IOPS 12000&lt;/div&gt;&lt;div&gt;Throughput 500 MB/s&lt;/div&gt;" style="text;strokeColor=#b85450;align=center;fillColor=#f8cecc;html=1;verticalAlign=middle;whiteSpace=wrap;rounded=0;" vertex="1" parent="1">
          <mxGeometry x="1114" y="85" width="134" height="60" as="geometry" />
        </mxCell>
        <mxCell id="rFtSwH5fFhds6dBa4mi8-35" value="AS-IS" style="rounded=0;whiteSpace=wrap;html=1;fillColor=#0050ef;fontColor=#ffffff;strokeColor=#001DBC;fontSize=21;" vertex="1" parent="1">
          <mxGeometry x="1409" y="36" width="120" height="60" as="geometry" />
        </mxCell>
        <mxCell id="rFtSwH5fFhds6dBa4mi8-36" value="To-Be" style="rounded=0;whiteSpace=wrap;html=1;fillColor=#0050ef;fontColor=#ffffff;strokeColor=#001DBC;fontSize=21;" vertex="1" parent="1">
          <mxGeometry x="1432" y="492" width="120" height="60" as="geometry" />
        </mxCell>
        <mxCell id="rFtSwH5fFhds6dBa4mi8-37" value="AWS Ireland Region (different account)" style="sketch=0;outlineConnect=0;gradientColor=none;html=1;whiteSpace=wrap;fontSize=12;fontStyle=0;shape=mxgraph.aws4.group;grIcon=mxgraph.aws4.group_aws_cloud;strokeColor=#AAB7B8;fillColor=none;verticalAlign=top;align=left;spacingLeft=30;fontColor=#AAB7B8;dashed=0;" vertex="1" parent="1">
          <mxGeometry x="975" y="329" width="415" height="274" as="geometry" />
        </mxCell>
        <mxCell id="rFtSwH5fFhds6dBa4mi8-38" value="" style="sketch=0;outlineConnect=0;fontColor=#232F3E;gradientColor=none;fillColor=#C925D1;strokeColor=none;dashed=0;verticalLabelPosition=bottom;verticalAlign=top;align=center;html=1;fontSize=12;fontStyle=0;aspect=fixed;pointerEvents=1;shape=mxgraph.aws4.aurora_instance;" vertex="1" parent="1">
          <mxGeometry x="1076" y="488" width="69" height="69" as="geometry" />
        </mxCell>
        <mxCell id="rFtSwH5fFhds6dBa4mi8-39" value="&lt;div&gt;&lt;br&gt;&lt;div&gt;Customer requirements:&lt;div&gt;1. Cost Down or only slightly increase is acceptable&lt;/div&gt;&lt;div&gt;2. Single Proxy for both write/read operation&lt;/div&gt;&lt;div&gt;3. OLAP needs to be MySQL 8.0&lt;/div&gt;&lt;/div&gt;&lt;/div&gt;" style="shape=note;whiteSpace=wrap;html=1;backgroundOutline=1;fontColor=#000000;darkOpacity=0.05;fillColor=#FFF9B2;strokeColor=none;fillStyle=solid;direction=west;gradientDirection=north;gradientColor=#FFF2A1;shadow=1;size=20;pointerEvents=1;align=left;" vertex="1" parent="1">
          <mxGeometry x="1563" y="144" width="343" height="83" as="geometry" />
        </mxCell>
        <mxCell id="rFtSwH5fFhds6dBa4mi8-40" value="&lt;span style=&quot;&quot;&gt;Customer Pain points:&lt;/span&gt;&lt;div style=&quot;&quot;&gt;1. Slow performance previously used M5.2xlarge which encountered CPU bottleneck, customer upgraded to M6g.4xlarge in July, 2025&lt;/div&gt;&lt;div style=&quot;&quot;&gt;2. High Cost with existing deployment while system performance is not optimal--large amount of indexes built and stored in EBS which led to around 4TB storage.&amp;nbsp;&lt;/div&gt;&lt;div style=&quot;&quot;&gt;3. Daily backup takes 6~8 hours to complete which impacts system performance&lt;/div&gt;" style="shape=note;whiteSpace=wrap;html=1;backgroundOutline=1;fontColor=#000000;darkOpacity=0.05;fillColor=#FFF9B2;strokeColor=none;fillStyle=solid;direction=west;gradientDirection=north;gradientColor=#FFF2A1;shadow=1;size=20;pointerEvents=1;align=left;" vertex="1" parent="1">
          <mxGeometry x="1564" y="-75" width="374" height="186" as="geometry" />
        </mxCell>
        <mxCell id="rFtSwH5fFhds6dBa4mi8-41" value="" style="sketch=0;outlineConnect=0;fontColor=#232F3E;gradientColor=none;fillColor=#C925D1;strokeColor=none;dashed=0;verticalLabelPosition=bottom;verticalAlign=top;align=center;html=1;fontSize=12;fontStyle=0;aspect=fixed;pointerEvents=1;shape=mxgraph.aws4.aurora_instance_alt;" vertex="1" parent="1">
          <mxGeometry x="1083" y="362" width="54" height="54" as="geometry" />
        </mxCell>
        <mxCell id="rFtSwH5fFhds6dBa4mi8-42" value="" style="sketch=0;outlineConnect=0;fontColor=#232F3E;gradientColor=none;fillColor=#C925D1;strokeColor=none;dashed=0;verticalLabelPosition=bottom;verticalAlign=top;align=center;html=1;fontSize=12;fontStyle=0;aspect=fixed;pointerEvents=1;shape=mxgraph.aws4.aurora_instance_alt;" vertex="1" parent="1">
          <mxGeometry x="1220" y="361" width="54" height="54" as="geometry" />
        </mxCell>
        <mxCell id="rFtSwH5fFhds6dBa4mi8-43" value="&lt;div&gt;&lt;font style=&quot;color: rgb(0, 0, 0);&quot;&gt;Questions:&lt;/font&gt;&lt;/div&gt;&lt;div&gt;&lt;font style=&quot;color: rgb(0, 0, 0);&quot;&gt;1. Instance Type for Writer node &lt;font style=&quot;color: rgb(255, 51, 153);&quot;&gt;R8g.2xlarge and Read replica R8g.xlarge&lt;/font&gt;/serverless= 0&lt;/font&gt;&lt;/div&gt;&lt;div&gt;&lt;font style=&quot;color: rgb(0, 0, 0);&quot;&gt;Failover Cluster Endpoint remains, RDS Proxy will reduce the failvoer (10sec-&amp;gt;3sec)&lt;/font&gt;&lt;/div&gt;&lt;div&gt;&lt;font style=&quot;color: rgb(0, 0, 0);&quot;&gt;2. Aurora I/O Optimized? 建议启用&lt;/font&gt;&lt;/div&gt;&lt;div&gt;3. Read Replica Write forwarding?--不建议使用&lt;br&gt;&lt;/div&gt;&lt;div&gt;4. serverless ?-- 读操作波峰波谷明显可以尝试&lt;/div&gt;&lt;div&gt;5. Aurora supports binlog? Yes&lt;/div&gt;&lt;div&gt;&lt;br&gt;&lt;/div&gt;&lt;div&gt;&lt;br&gt;&lt;/div&gt;&lt;div&gt;DMS 迁移&lt;/div&gt;" style="shape=note;whiteSpace=wrap;html=1;backgroundOutline=1;fontColor=#000000;darkOpacity=0.05;fillColor=#FFF9B2;strokeColor=none;fillStyle=solid;direction=west;gradientDirection=north;gradientColor=#FFF2A1;shadow=1;size=20;pointerEvents=1;align=left;" vertex="1" parent="1">
          <mxGeometry x="1575" y="273" width="505" height="125" as="geometry" />
        </mxCell>
        <mxCell id="rFtSwH5fFhds6dBa4mi8-44" value="Writer Node" style="text;strokeColor=none;align=center;fillColor=none;html=1;verticalAlign=middle;whiteSpace=wrap;rounded=0;" vertex="1" parent="1">
          <mxGeometry x="1081" y="422" width="60" height="30" as="geometry" />
        </mxCell>
        <mxCell id="rFtSwH5fFhds6dBa4mi8-45" value="Cross-AZ Read replica" style="text;strokeColor=none;align=center;fillColor=none;html=1;verticalAlign=middle;whiteSpace=wrap;rounded=0;" vertex="1" parent="1">
          <mxGeometry x="1215" y="423" width="60" height="30" as="geometry" />
        </mxCell>
        <mxCell id="rFtSwH5fFhds6dBa4mi8-46" value="&lt;div&gt;Customer Benefits:&lt;/div&gt;&lt;div&gt;Aurora better performance&amp;nbsp;&lt;/div&gt;&lt;div&gt;read replica &amp;lt;100ms&amp;nbsp;&lt;/div&gt;&lt;div&gt;1. Read replica to offload read operations&lt;/div&gt;&lt;div&gt;2. Backup less perforamce impact&lt;/div&gt;&lt;div&gt;3. serveress option&lt;/div&gt;&lt;div&gt;4. Clone capability&lt;/div&gt;&lt;div&gt;5. Global database for global expansion&lt;/div&gt;&lt;div&gt;6. Strong consistency -- read from writer node&lt;/div&gt;" style="shape=note;whiteSpace=wrap;html=1;backgroundOutline=1;fontColor=#000000;darkOpacity=0.05;fillColor=#f0a30a;strokeColor=#BD7000;fillStyle=solid;direction=west;gradientDirection=north;shadow=1;size=20;pointerEvents=1;align=left;" vertex="1" parent="1">
          <mxGeometry x="1581" y="442" width="343" height="160" as="geometry" />
        </mxCell>
      </root>
    </mxGraphModel>
  </diagram>
</mxfile>
